<svg width="534" height="518" viewBox="0 0 534 518" fill="none" xmlns="http://www.w3.org/2000/svg">
<path d="M489.5 64.75L44.5 237.417L456.125 410.083L489.5 64.75ZM222.5 442.458L289.25 345.333L222.5 442.458ZM344.875 205.042L200.25 302.167L219.363 431.926C221.098 443.71 224.169 443.516 226.171 431.861L244.75 323.75L344.875 205.042Z" stroke="#5E21BC" stroke-width="2"/>
<path d="M95.0742 494V458.453H92.1689V488.336L75.8359 458.453H72.9551V494H75.8359L75.8604 464.068L92.1934 494H95.0742ZM115.021 494.488C117.218 494.488 119.146 494.057 120.807 493.194C122.467 492.332 123.793 491.201 124.786 489.801L122.955 488.409C122.011 489.581 120.88 490.476 119.562 491.095C118.243 491.713 116.77 492.014 115.143 491.998C113.727 491.998 112.433 491.721 111.261 491.168C110.105 490.598 109.12 489.841 108.307 488.897C107.477 487.97 106.834 486.904 106.378 485.699C105.922 484.495 105.662 483.193 105.597 481.793V480.987H125.372V479.205C125.356 477.529 125.112 475.958 124.64 474.493C124.168 473.012 123.468 471.718 122.54 470.611C121.612 469.521 120.473 468.666 119.122 468.048C117.771 467.413 116.225 467.096 114.483 467.096C112.823 467.096 111.277 467.446 109.845 468.146C108.412 468.829 107.175 469.765 106.134 470.953C105.06 472.158 104.213 473.582 103.595 475.226C102.993 476.853 102.691 478.603 102.691 480.475V481.524C102.691 483.299 102.993 484.975 103.595 486.554C104.197 488.116 105.043 489.492 106.134 490.68C107.208 491.852 108.502 492.779 110.016 493.463C111.529 494.146 113.198 494.488 115.021 494.488ZM114.483 469.61C115.737 469.61 116.852 469.854 117.828 470.343C118.805 470.815 119.635 471.45 120.318 472.247C120.986 473.045 121.507 473.972 121.881 475.03C122.271 476.088 122.467 477.154 122.467 478.229V478.497H105.719C105.898 477.228 106.231 476.048 106.72 474.957C107.208 473.867 107.826 472.923 108.575 472.125C109.324 471.344 110.195 470.733 111.188 470.294C112.18 469.838 113.279 469.61 114.483 469.61ZM136.432 494H138.8L143.414 475.982L144.22 471.832L144.977 475.982L149.64 494H152.008L157.867 467.584H155.182L151.568 485.406L150.714 490.069L149.713 485.406L145.245 467.584H143.194L138.727 485.406L137.75 489.898L136.969 485.406L133.282 467.584H130.597L136.432 494ZM182.232 487.262C182.232 487.896 182.094 488.466 181.817 488.971C181.557 489.459 181.183 489.898 180.694 490.289C179.946 490.859 179.059 491.29 178.033 491.583C177.008 491.86 175.917 491.998 174.762 491.998C173.867 491.998 172.955 491.917 172.027 491.754C171.116 491.575 170.286 491.274 169.537 490.851C168.756 490.444 168.097 489.89 167.56 489.19C167.039 488.491 166.729 487.62 166.632 486.578H163.727C163.775 487.799 164.085 488.897 164.654 489.874C165.24 490.851 166.038 491.673 167.047 492.34C168.023 493.023 169.179 493.552 170.514 493.927C171.848 494.301 173.264 494.488 174.762 494.488C176.129 494.488 177.48 494.317 178.814 493.976C180.149 493.634 181.321 493.105 182.33 492.389C183.16 491.803 183.836 491.062 184.356 490.167C184.877 489.272 185.138 488.255 185.138 487.115C185.138 485.911 184.869 484.885 184.332 484.039C183.795 483.176 183.062 482.444 182.135 481.842C181.207 481.256 180.133 480.768 178.912 480.377C177.708 479.97 176.438 479.628 175.104 479.352C174.062 479.14 173.061 478.904 172.101 478.644C171.14 478.367 170.318 478.025 169.635 477.618C168.951 477.228 168.43 476.756 168.072 476.202C167.73 475.632 167.56 474.965 167.56 474.2C167.56 473.435 167.755 472.768 168.146 472.198C168.552 471.612 169.09 471.132 169.757 470.758C170.408 470.367 171.148 470.082 171.979 469.903C172.825 469.708 173.696 469.61 174.591 469.61C175.535 469.61 176.446 469.732 177.325 469.977C178.22 470.221 179.018 470.571 179.718 471.026C180.401 471.482 180.955 472.044 181.378 472.711C181.817 473.378 182.045 474.135 182.062 474.981H184.991C184.942 473.728 184.641 472.613 184.088 471.637C183.535 470.66 182.794 469.83 181.866 469.146C180.922 468.479 179.824 467.975 178.57 467.633C177.333 467.275 176.007 467.096 174.591 467.096C173.321 467.096 172.084 467.258 170.88 467.584C169.692 467.91 168.65 468.365 167.755 468.951C166.811 469.586 166.054 470.351 165.484 471.246C164.931 472.141 164.654 473.159 164.654 474.298C164.654 475.502 164.931 476.528 165.484 477.374C166.054 478.204 166.795 478.888 167.706 479.425C168.683 479.994 169.732 480.458 170.855 480.816C171.979 481.174 173.215 481.492 174.566 481.769C175.624 481.996 176.65 482.273 177.643 482.599C178.652 482.924 179.506 483.315 180.206 483.771C180.841 484.177 181.337 484.674 181.695 485.26C182.053 485.829 182.232 486.497 182.232 487.262ZM194.513 456.5V459.112H203.912V491.388H194.513V494H215.753V491.388H206.817V456.5H194.513ZM235.138 494.488C237.335 494.488 239.264 494.057 240.924 493.194C242.584 492.332 243.91 491.201 244.903 489.801L243.072 488.409C242.128 489.581 240.997 490.476 239.679 491.095C238.36 491.713 236.887 492.014 235.26 491.998C233.844 491.998 232.55 491.721 231.378 491.168C230.222 490.598 229.238 489.841 228.424 488.897C227.594 487.97 226.951 486.904 226.495 485.699C226.039 484.495 225.779 483.193 225.714 481.793V480.987H245.489V479.205C245.473 477.529 245.229 475.958 244.757 474.493C244.285 473.012 243.585 471.718 242.657 470.611C241.729 469.521 240.59 468.666 239.239 468.048C237.888 467.413 236.342 467.096 234.601 467.096C232.94 467.096 231.394 467.446 229.962 468.146C228.53 468.829 227.293 469.765 226.251 470.953C225.177 472.158 224.33 473.582 223.712 475.226C223.11 476.853 222.809 478.603 222.809 480.475V481.524C222.809 483.299 223.11 484.975 223.712 486.554C224.314 488.116 225.16 489.492 226.251 490.68C227.325 491.852 228.619 492.779 230.133 493.463C231.646 494.146 233.315 494.488 235.138 494.488ZM234.601 469.61C235.854 469.61 236.969 469.854 237.945 470.343C238.922 470.815 239.752 471.45 240.436 472.247C241.103 473.045 241.624 473.972 241.998 475.03C242.389 476.088 242.584 477.154 242.584 478.229V478.497H225.836C226.015 477.228 226.349 476.048 226.837 474.957C227.325 473.867 227.944 472.923 228.692 472.125C229.441 471.344 230.312 470.733 231.305 470.294C232.298 469.838 233.396 469.61 234.601 469.61ZM263.629 460.821H260.675V467.584H253.326V470.001H260.675V486.554C260.691 488.002 260.903 489.231 261.31 490.24C261.733 491.249 262.311 492.063 263.043 492.682C263.775 493.316 264.638 493.772 265.631 494.049C266.64 494.342 267.73 494.488 268.902 494.488C269.472 494.488 270.042 494.472 270.611 494.439C271.197 494.407 271.759 494.342 272.296 494.244C272.719 494.179 273.118 494.098 273.492 494C273.883 493.902 274.225 493.78 274.518 493.634L274.078 491.412C273.834 491.461 273.541 491.518 273.199 491.583C272.874 491.632 272.54 491.681 272.198 491.729C271.743 491.778 271.279 491.827 270.807 491.876C270.335 491.909 269.863 491.925 269.391 491.925C268.593 491.925 267.844 491.835 267.145 491.656C266.445 491.477 265.834 491.176 265.313 490.753C264.793 490.346 264.386 489.801 264.093 489.117C263.8 488.434 263.645 487.579 263.629 486.554V470.001H273.419V467.584H263.629V460.821ZM293.658 460.821H290.704V467.584H283.355V470.001H290.704V486.554C290.72 488.002 290.932 489.231 291.339 490.24C291.762 491.249 292.34 492.063 293.072 492.682C293.805 493.316 294.667 493.772 295.66 494.049C296.669 494.342 297.76 494.488 298.932 494.488C299.501 494.488 300.071 494.472 300.641 494.439C301.227 494.407 301.788 494.342 302.325 494.244C302.748 494.179 303.147 494.098 303.521 494C303.912 493.902 304.254 493.78 304.547 493.634L304.107 491.412C303.863 491.461 303.57 491.518 303.229 491.583C302.903 491.632 302.569 491.681 302.228 491.729C301.772 491.778 301.308 491.827 300.836 491.876C300.364 491.909 299.892 491.925 299.42 491.925C298.622 491.925 297.874 491.835 297.174 491.656C296.474 491.477 295.864 491.176 295.343 490.753C294.822 490.346 294.415 489.801 294.122 489.117C293.829 488.434 293.674 487.579 293.658 486.554V470.001H303.448V467.584H293.658V460.821ZM325.226 494.488C327.423 494.488 329.352 494.057 331.012 493.194C332.672 492.332 333.998 491.201 334.991 489.801L333.16 488.409C332.216 489.581 331.085 490.476 329.767 491.095C328.448 491.713 326.975 492.014 325.348 491.998C323.932 491.998 322.638 491.721 321.466 491.168C320.31 490.598 319.326 489.841 318.512 488.897C317.682 487.97 317.039 486.904 316.583 485.699C316.127 484.495 315.867 483.193 315.802 481.793V480.987H335.577V479.205C335.561 477.529 335.317 475.958 334.845 474.493C334.373 473.012 333.673 471.718 332.745 470.611C331.817 469.521 330.678 468.666 329.327 468.048C327.976 467.413 326.43 467.096 324.688 467.096C323.028 467.096 321.482 467.446 320.05 468.146C318.618 468.829 317.381 469.765 316.339 470.953C315.265 472.158 314.418 473.582 313.8 475.226C313.198 476.853 312.896 478.603 312.896 480.475V481.524C312.896 483.299 313.198 484.975 313.8 486.554C314.402 488.116 315.248 489.492 316.339 490.68C317.413 491.852 318.707 492.779 320.221 493.463C321.734 494.146 323.403 494.488 325.226 494.488ZM324.688 469.61C325.942 469.61 327.057 469.854 328.033 470.343C329.01 470.815 329.84 471.45 330.523 472.247C331.191 473.045 331.712 473.972 332.086 475.03C332.477 476.088 332.672 477.154 332.672 478.229V478.497H315.924C316.103 477.228 316.437 476.048 316.925 474.957C317.413 473.867 318.032 472.923 318.78 472.125C319.529 471.344 320.4 470.733 321.393 470.294C322.385 469.838 323.484 469.61 324.688 469.61ZM361.456 467.096C359.063 467.079 356.98 467.584 355.206 468.609C353.432 469.618 352.032 471.026 351.007 472.833V471.661L350.836 467.584H348.053V494H351.056L351.031 477.105C351.357 475.885 351.821 474.835 352.423 473.956C353.041 473.061 353.766 472.32 354.596 471.734C355.458 471.132 356.427 470.693 357.501 470.416C358.591 470.123 359.755 469.977 360.992 469.977C361.708 469.977 362.408 470.017 363.092 470.099C363.775 470.18 364.451 470.294 365.118 470.44L365.509 467.608C365.004 467.446 364.378 467.324 363.629 467.242C362.896 467.145 362.172 467.096 361.456 467.096ZM421.393 484.088L424.542 494H427.472L415.997 458.453H413.36L401.812 494H404.742L407.892 484.088H421.393ZM408.722 481.476L414.679 462.848L420.587 481.476H408.722ZM434.161 504.156H437.066V490.802C437.457 491.323 437.905 491.795 438.409 492.218C438.93 492.641 439.483 493.007 440.069 493.316C440.785 493.691 441.567 493.976 442.413 494.171C443.259 494.382 444.13 494.488 445.025 494.488C446.799 494.488 448.338 494.114 449.64 493.365C450.958 492.617 452.032 491.624 452.862 490.387C453.709 489.15 454.343 487.717 454.767 486.09C455.206 484.462 455.426 482.786 455.426 481.061V480.548C455.41 478.709 455.174 476.943 454.718 475.25C454.278 473.541 453.587 472.06 452.643 470.807C451.78 469.651 450.714 468.748 449.444 468.097C448.175 467.429 446.686 467.096 444.977 467.096C444.065 467.096 443.194 467.21 442.364 467.438C441.534 467.649 440.769 467.958 440.069 468.365C439.451 468.707 438.881 469.122 438.36 469.61C437.84 470.082 437.376 470.619 436.969 471.222L436.871 467.584H434.161V504.156ZM452.496 480.548V481.061C452.48 482.428 452.317 483.779 452.008 485.113C451.715 486.448 451.235 487.628 450.567 488.653C449.916 489.646 449.078 490.452 448.053 491.07C447.044 491.689 445.815 491.998 444.366 491.998C443.552 491.998 442.763 491.892 441.998 491.681C441.233 491.453 440.525 491.144 439.874 490.753C439.272 490.379 438.727 489.915 438.238 489.361C437.75 488.808 437.359 488.189 437.066 487.506V474.64C437.376 473.875 437.766 473.191 438.238 472.589C438.727 471.97 439.288 471.441 439.923 471.002C440.541 470.579 441.217 470.253 441.949 470.025C442.698 469.781 443.487 469.659 444.317 469.659C445.733 469.659 446.938 469.944 447.931 470.514C448.924 471.083 449.754 471.824 450.421 472.735C451.137 473.81 451.658 475.03 451.983 476.397C452.325 477.765 452.496 479.148 452.496 480.548ZM464.19 504.156H467.096V490.802C467.486 491.323 467.934 491.795 468.438 492.218C468.959 492.641 469.513 493.007 470.099 493.316C470.815 493.691 471.596 493.976 472.442 494.171C473.289 494.382 474.16 494.488 475.055 494.488C476.829 494.488 478.367 494.114 479.669 493.365C480.987 492.617 482.062 491.624 482.892 490.387C483.738 489.15 484.373 487.717 484.796 486.09C485.235 484.462 485.455 482.786 485.455 481.061V480.548C485.439 478.709 485.203 476.943 484.747 475.25C484.308 473.541 483.616 472.06 482.672 470.807C481.809 469.651 480.743 468.748 479.474 468.097C478.204 467.429 476.715 467.096 475.006 467.096C474.094 467.096 473.224 467.21 472.394 467.438C471.563 467.649 470.799 467.958 470.099 468.365C469.48 468.707 468.91 469.122 468.39 469.61C467.869 470.082 467.405 470.619 466.998 471.222L466.9 467.584H464.19V504.156ZM482.525 480.548V481.061C482.509 482.428 482.346 483.779 482.037 485.113C481.744 486.448 481.264 487.628 480.597 488.653C479.946 489.646 479.107 490.452 478.082 491.07C477.073 491.689 475.844 491.998 474.396 491.998C473.582 491.998 472.792 491.892 472.027 491.681C471.262 491.453 470.554 491.144 469.903 490.753C469.301 490.379 468.756 489.915 468.268 489.361C467.779 488.808 467.389 488.189 467.096 487.506V474.64C467.405 473.875 467.796 473.191 468.268 472.589C468.756 471.97 469.317 471.441 469.952 471.002C470.571 470.579 471.246 470.253 471.979 470.025C472.727 469.781 473.517 469.659 474.347 469.659C475.763 469.659 476.967 469.944 477.96 470.514C478.953 471.083 479.783 471.824 480.45 472.735C481.166 473.81 481.687 475.03 482.013 476.397C482.354 477.765 482.525 479.148 482.525 480.548Z" fill="#5E21BC"/>
</svg>
