<svg width="798" height="441" viewBox="0 0 798 441" fill="none" xmlns="http://www.w3.org/2000/svg">
<path fill-rule="evenodd" clip-rule="evenodd" d="M0 49.8722L33 99.7445C67 149.617 133 247.283 200 255.595C266 263.907 333 180.787 399 164.163C466 149.617 532 197.411 599 180.787C665 164.163 732 83.1204 765 41.5602L798 0V396.9H765C732 396.9 665 396.9 599 396.9C532 396.9 466 396.9 399 396.9C333 396.9 266 396.9 200 396.9C133 396.9 67 396.9 33 396.9H0V49.8722Z" fill="#9060EB"/>
<path fill-rule="evenodd" clip-rule="evenodd" d="M0 49.8722L33 99.7445C67 149.617 133 247.283 200 255.595C266 263.907 333 180.787 399 164.163C466 149.617 532 197.411 599 180.787C665 164.163 732 83.1204 765 41.5602L798 0V396.9H765C732 396.9 665 396.9 599 396.9C532 396.9 466 396.9 399 396.9C333 396.9 266 396.9 200 396.9C133 396.9 67 396.9 33 396.9H0V49.8722Z" fill="#9060EB"/>
<path fill-rule="evenodd" clip-rule="evenodd" d="M-3 93.8848L30.1241 143.77C64.2519 193.654 130.5 291.346 197.752 299.66C264 307.974 331.252 224.832 397.5 208.204C464.752 193.654 531 241.461 598.252 224.832C664.5 208.204 731.752 127.141 764.876 85.5707L798 44V441H764.876C731.752 441 664.5 441 598.252 441C531 441 464.752 441 397.5 441C331.252 441 264 441 197.752 441C130.5 441 64.2519 441 30.1241 441H-3V93.8848Z" fill="#9060EB"/>
<path fill-rule="evenodd" clip-rule="evenodd" d="M-3 93.8848L30.1241 143.77C64.2519 193.654 130.5 291.346 197.752 299.66C264 307.974 331.252 224.832 397.5 208.204C464.752 193.654 531 241.461 598.252 224.832C664.5 208.204 731.752 127.141 764.876 85.5707L798 44V441H764.876C731.752 441 664.5 441 598.252 441C531 441 464.752 441 397.5 441C331.252 441 264 441 197.752 441C130.5 441 64.2519 441 30.1241 441H-3V93.8848Z" fill="#7D4CDB"/>
</svg>
